<?xml version="1.0" encoding="UTF-8" standalone="yes"?>
<!DOCTYPE svg PUBLIC "-//W3C//DTD SVG 1.1//EN" "http://www.w3.org/Graphics/SVG/1.1/DTD/svg11.dtd">

<svg width="20" height="20" viewBox="0 0 20 20" xmlns="http://www.w3.org/2000/svg" xmlns:xlink="http://www.w3.org/1999/xlink" version="1.1" baseProfile="full">
    <g transform="scale(1,-1) translate(0,-20)">
        <path d="M 18.656943 42.000000 C 9.477297 42.000000 2.000000 34.522703 2.000000 25.343057 C 2.000000 16.163410 9.477297 8.686114 18.656943 8.686114 C 22.648793 8.686114 26.314782 10.103641 29.187905 12.456699 L 39.133271 2.511333 C 39.194521 2.447540 39.329840 2.333641 39.403148 2.284175 C 39.476457 2.234709 39.632725 2.151857 39.714806 2.118937 C 39.796886 2.086016 39.967096 2.037926 40.054269 2.023026 C 40.141441 2.008127 40.317961 1.996955 40.406316 2.000745 C 40.494672 2.004535 40.669587 2.030782 40.755163 2.053091 C 40.840739 2.075400 41.006206 2.137890 41.085166 2.177718 C 41.164126 2.217547 41.312725 2.313476 41.381529 2.369038 C 41.450332 2.424599 41.575401 2.549668 41.630962 2.618471 C 41.686524 2.687275 41.782453 2.835874 41.822282 2.914834 C 41.862110 2.993794 41.924600 3.159261 41.946909 3.244837 C 41.969218 3.330413 41.995465 3.505328 41.999255 3.593684 C 42.003045 3.682039 41.991873 3.858559 41.976974 3.945731 C 41.962074 4.032904 41.913984 4.203114 41.881063 4.285194 C 41.848143 4.367275 41.765291 4.523543 41.715825 4.596852 C 41.666359 4.670160 41.552460 4.805479 41.488667 4.866729 L 31.543301 14.812095 C 33.896359 17.685218 35.313886 21.351207 35.313886 25.343057 C 35.313886 34.522703 27.836590 42.000000 18.656943 42.000000 Z M 18.656943 38.668611 C 26.036173 38.668611 31.982498 32.722286 31.982498 25.343057 C 31.982498 17.963827 26.036173 12.017502 18.656943 12.017502 C 11.277714 12.017502 5.331389 17.963827 5.331389 25.343057 C 5.331389 32.722286 11.277714 38.668611 18.656943 38.668611 Z" transform="scale(0.500000,0.500000) translate(-2.000000,-2.000000)" fill="#777777" opacity="1.000000"></path>
    </g>
</svg>